<?xml version="1.0" encoding="UTF-8"?>
<svg width="43px" height="35px" viewBox="0 0 43 35" version="1.1" xmlns="http://www.w3.org/2000/svg" xmlns:xlink="http://www.w3.org/1999/xlink">
    <!-- Generator: Sketch 61.1 (89650) - https://sketch.com -->
    <title>Chromecast</title>
    <desc>Created with Sketch.</desc>
    <g id="UI_Desktop" stroke="none" stroke-width="1" fill="none" fill-rule="evenodd">
        <g id="0.2-Login_nuevoyusuario_4.1" transform="translate(-1164.000000, -567.000000)" fill="#000000">
            <g id="Chromecast" transform="translate(1137.000000, 558.000000)">
                <g transform="translate(27.000000, 9.000000)">
                    <path d="M7.41474914,0.159878212 C5.93214165,0.325801388 4.62974495,0.686907955 3.66640252,1.64617441 C2.70317048,2.6054566 2.34003659,3.90428932 2.17263041,5.38349452 C2.01096424,6.81193066 2.01219424,8.55416332 2.01247809,10.7913669 C2.0034503,10.8626563 1.99933408,10.9344788 1.99984773,11.0063296 L1.99984773,11.7924718 C1.99211561,12.359494 2.29090407,12.8869097 2.78211181,13.172761 C3.27331955,13.4586123 3.88084374,13.4586123 4.37205148,13.172761 C4.86325922,12.8869097 5.16204768,12.359494 5.15400492,11.7924718 L5.15400492,11.2120787 C5.16262011,11.1438381 5.16673552,11.0751075 5.16632463,11.0063296 C5.16632463,8.65309146 5.17529685,6.90927079 5.30800172,5.73666106 C5.4407077,4.56414566 5.67324869,4.09173708 5.89627295,3.86957328 C6.11928144,3.64747238 6.59308381,3.41769874 7.76886934,3.28611425 C8.94465487,3.15452977 10.6931159,3.14485393 13.0509315,3.14485393 L31.9613954,3.14485393 C34.3215765,3.14485393 36.0705421,3.15379976 37.2466114,3.28611425 C38.422602,3.41842985 38.8963886,3.65028677 39.1192078,3.87265496 C39.341964,4.09500743 39.5724156,4.56741601 39.7043883,5.73974273 C39.836361,6.91206946 39.8460654,8.655387 39.8460654,11.0062667 L39.8460654,21.993862 C39.8460654,24.3447417 39.8362822,26.0880907 39.7043883,27.260386 C39.5724156,28.4327127 39.3419482,28.9051527 39.1192078,29.1274738 C38.8964516,29.3498262 38.422602,29.581691 37.2466114,29.7140145 C36.0706367,29.8463222 34.3217342,29.8552732 31.9613954,29.8552732 L23.2883174,29.8552732 C22.7196222,29.8472541 22.1906505,30.1451636 21.9039558,30.6349264 C21.6172612,31.1246891 21.6172612,31.7304262 21.9039558,32.2201889 C22.1906505,32.7099517 22.7196222,33.0078612 23.2883174,33.0001518 L31.9613954,33.0001518 C34.3233111,33.0001518 36.117219,33.0070746 37.6007884,32.8401609 C39.0842317,32.6732472 40.3868964,32.3111815 41.349135,31.350783 C42.3113736,30.3903845 42.6734037,29.0917247 42.8398164,27.6134629 C43.0062133,26.1352168 43.0000309,24.3456269 43.0000309,21.9938039 L43.0000309,11.0062085 C43.0000309,8.65438545 43.0062764,6.86779864 42.8398164,5.38953681 C42.6734037,3.91129071 42.3112317,2.61272527 41.349135,1.6522167 C40.3870226,0.6918182 39.0843578,0.329752539 37.6007884,0.162838823 C36.9745606,0.0923800407 36.2534652,0.0626764431 35.4971728,0.0400041015 C35.3759825,0.0122146302 35.251921,-0.00118574062 35.1275735,-7.2307048e-05 L13.0506477,-7.2307048e-05 C10.6922265,-7.2307048e-05 8.8973724,-0.00603883325 7.41474914,0.159878212 Z" id="Path"></path>
                    <circle id="Oval" cx="3" cy="32" r="3"></circle>
                    <path d="M3.59055061,22.0001573 C3.02499584,21.9921679 2.49894515,22.2889763 2.21383364,22.7769289 C1.92872212,23.2648816 1.92872212,23.8683798 2.21383364,24.3563325 C2.49894515,24.8442851 3.02499584,25.1410936 3.59055061,25.1331041 C7.06885218,25.1331041 9.86341187,27.9259695 9.86341187,31.4112161 C9.85541352,31.9761427 10.152552,32.5016091 10.6410473,32.7864039 C11.1295425,33.0711987 11.7337119,33.0711987 12.2222071,32.7864039 C12.7107023,32.5016091 13.0078409,31.9761427 12.9998425,31.4112161 C12.9998425,26.2338649 8.76879758,22.0001573 3.59055061,22.0001573 L3.59055061,22.0001573 Z" id="Path"></path>
                    <path d="M2.65868292,16.0003266 C2.06890223,15.9919975 1.5203178,16.3014228 1.22299334,16.8101175 C0.925668885,17.3188121 0.925668885,17.9479641 1.22299334,18.4566588 C1.5203178,18.9653534 2.06890223,19.2747787 2.65868292,19.2664496 C9.88825542,19.2664496 15.729054,25.1066042 15.729054,32.3436796 C15.720713,32.9326203 16.0305797,33.4804233 16.5399999,33.7773243 C17.0494202,34.0742252 17.6794696,34.0742252 18.1888898,33.7773243 C18.6983101,33.4804233 19.0081767,32.9326203 19,32.3436796 C19,23.3415913 11.6620004,16 2.65868292,16 L2.65868292,16.0003266 Z" id="Path"></path>
                </g>
            </g>
        </g>
    </g>
</svg>