<?xml version="1.0" encoding="UTF-8"?>
<svg width="40px" height="36px" viewBox="0 0 40 36" version="1.1" xmlns="http://www.w3.org/2000/svg" xmlns:xlink="http://www.w3.org/1999/xlink">
    <!-- Generator: Sketch 61.1 (89650) - https://sketch.com -->
    <title>001-electronics</title>
    <desc>Created with Sketch.</desc>
    <g id="UI_Desktop" stroke="none" stroke-width="1" fill="none" fill-rule="evenodd">
        <g id="0.2-Login_nuevoyusuario_4.1" transform="translate(-829.000000, -566.000000)" fill="#000000" fill-rule="nonzero">
            <g id="PC" transform="translate(801.000000, 558.000000)">
                <g id="001-electronics" transform="translate(28.000000, 8.000000)">
                    <path d="M37.2,0 L2,0 C0.8976,0 0,0.8968 0,2 L0,22.8 C0,23.0208 0.1792,23.2 0.4,23.2 L38.8,23.2 C39.0208,23.2 39.2,23.0208 39.2,22.8 L39.2,2 C39.2,0.8968 38.3024,0 37.2,0 Z M38.4,22.4 L0.8,22.4 L0.8,2 C0.8,1.3384 1.3384,0.8 2,0.8 L37.2,0.8 C37.8616,0.8 38.4,1.3384 38.4,2 L38.4,22.4 Z" id="Shape"></path>
                    <path d="M38.8,24 C38.5792,24 38.4,24.1792 38.4,24.4 L38.4,26 C38.4,26.6616 37.8616,27.2 37.2,27.2 L2,27.2 C1.3384,27.2 0.8,26.6616 0.8,26 L0.8,24.4 C0.8,24.1792 0.6208,24 0.4,24 C0.1792,24 0,24.1792 0,24.4 L0,26 C0,27.1032 0.8976,28 2,28 L37.2,28 C38.3024,28 39.2,27.1032 39.2,26 L39.2,24.4 C39.2,24.1792 39.0208,24 38.8,24 Z" id="Path"></path>
                    <path d="M36.4,2.4 L2.8,2.4 C2.5792,2.4 2.4,2.5792 2.4,2.8 L2.4,20.4 C2.4,20.6208 2.5792,20.8 2.8,20.8 L36.4,20.8 C36.6208,20.8 36.8,20.6208 36.8,20.4 L36.8,2.8 C36.8,2.5792 36.6208,2.4 36.4,2.4 Z M36,20 L3.2,20 L3.2,3.2 L36,3.2 L36,20 Z" id="Shape"></path>
                    <path d="M12.4,34.4 C13.528,34.4 14.5264,33.6792 14.8832,32.6072 L15.512,30.0784 C15.5552,29.8616 15.4144,29.6512 15.1984,29.608 C14.9776,29.5608 14.7704,29.7048 14.728,29.9224 L14.1248,32.3536 C13.876,33.0992 13.1832,33.6 12.4,33.6 C11.86,33.6 11.3576,33.8104 10.9928,34.1848 C10.6104,34.5576 10.4,35.06 10.4,35.6 C10.4,35.8208 10.5792,36 10.8,36 L28.4,36 C28.6208,36 28.8,35.8208 28.8,35.6 C28.8,35.06 28.5896,34.5576 28.2152,34.1928 C27.8424,33.8104 27.34,33.6 26.8,33.6 C26.0168,33.6 25.324,33.0992 25.0752,32.352 L24.4728,29.9216 C24.4296,29.7048 24.22,29.5616 24.0024,29.6072 C23.7856,29.6504 23.6456,29.8608 23.6888,30.0776 L24.3176,32.6056 C24.6736,33.6792 25.672,34.4 26.8,34.4 C27.1224,34.4 27.4208,34.5248 27.6488,34.7584 C27.7776,34.8832 27.8736,35.0344 27.932,35.2 L11.268,35.2 C11.3272,35.0336 11.4248,34.8808 11.5584,34.7504 C11.7792,34.5248 12.0776,34.4 12.4,34.4 L12.4,34.4 Z" id="Path"></path>
                    <path d="M22.8,33.6 C23.0208,33.6 23.2,33.4208 23.2,33.2 C23.2,32.9792 23.0208,32.8 22.8,32.8 L16.4,32.8 C16.1792,32.8 16,32.9792 16,33.2 C16,33.4208 16.1792,33.6 16.4,33.6 L22.8,33.6 Z" id="Path"></path>
                    <circle id="Oval" cx="19.6" cy="25.2" r="1"></circle>
                </g>
            </g>
        </g>
    </g>
</svg>