<?xml version="1.0" encoding="UTF-8"?>
<svg width="30px" height="40px" viewBox="0 0 30 40" version="1.1" xmlns="http://www.w3.org/2000/svg" xmlns:xlink="http://www.w3.org/1999/xlink">
    <!-- Generator: Sketch 61.1 (89650) - https://sketch.com -->
    <title>mobile</title>
    <desc>Created with Sketch.</desc>
    <g id="UI_Desktop" stroke="none" stroke-width="1" fill="none" fill-rule="evenodd">
        <g id="0.2-Login_nuevoyusuario_5.1" transform="translate(-1058.000000, -573.000000)" fill-rule="nonzero">
            <g id="MOBILE" transform="translate(1022.000000, 551.000000)">
                <g id="mobile" transform="translate(36.000000, 22.000000)">
                    <path d="M18,38.8 L3.6,38.8 C1.8328,38.8 0.4,37.3672 0.4,35.6 L0.4,3.6 C0.4,1.8328 1.8328,0.4 3.6,0.4 L18,0.4 C19.7672,0.4 21.2,1.8328 21.2,3.6 L21.2,35.6 C21.2,37.3672 19.7672,38.8 18,38.8 Z" id="Path" fill="#CADFDC"></path>
                    <path d="M4.4,38.8 L3.6,38.8 C1.832,38.8 0.4,37.368 0.4,35.6 L0.4,3.6 C0.4,1.832 1.832,0.4 3.6,0.4 L4.4,0.4 C2.632,0.4 1.2,1.832 1.2,3.6 L1.2,35.6 C1.2,37.368 2.632,38.8 4.4,38.8 Z" id="Path" fill="#E3EEEC"></path>
                    <path d="M26,38.8 L11.6,38.8 C9.8328,38.8 8.4,37.3672 8.4,35.6 L8.4,3.6 C8.4,1.8328 9.8328,0.4 11.6,0.4 L26,0.4 C27.7672,0.4 29.2,1.8328 29.2,3.6 L29.2,35.6 C29.2,37.3672 27.7672,38.8 26,38.8 Z" id="Path" fill="#F4F8F7"></path>
                    <circle id="Oval" fill="#2A2D2C" cx="3.6" cy="3.6" r="1"></circle>
                    <path d="M20.4,3.2 L17.2,3.2 C16.9792,3.2 16.8,3.0208 16.8,2.8 C16.8,2.5792 16.9792,2.4 17.2,2.4 L20.4,2.4 C20.6208,2.4 20.8,2.5792 20.8,2.8 C20.8,3.0208 20.6208,3.2 20.4,3.2 Z" id="Path" fill="#2A2D2C"></path>
                    <polygon id="Path" fill="#CADFDC" points="10.8 5.2 26.8 5.2 26.8 30.8 10.8 30.8"></polygon>
                    <circle id="Oval" fill="#8CB5AD" cx="18.8" cy="34.8" r="1.6"></circle>
                    <polygon id="Path" fill="#E3EEEC" points="10.8 30.8 26.8 5.2 10.8 5.2"></polygon>
                    <path d="M8,3.6 L8,35.6 C8,37.5848 9.6152,39.2 11.6,39.2 L26,39.2 C27.9848,39.2 29.6,37.5848 29.6,35.6 L29.6,3.6 C29.6,1.6152 27.9848,0 26,0 L11.6,0 C9.6152,0 8,1.6152 8,3.6 Z M28.8,3.6 L28.8,35.6 C28.8,37.144 27.544,38.4 26,38.4 L11.6,38.4 C10.056,38.4 8.8,37.144 8.8,35.6 L8.8,3.6 C8.8,2.056 10.056,0.8 11.6,0.8 L26,0.8 C27.544,0.8 28.8,2.056 28.8,3.6 Z" id="Shape" fill="#000000"></path>
                    <path d="M0,3.6 L0,35.6 C0,37.5848 1.6152,39.2 3.6,39.2 L6.8,39.2 C7.0208,39.2 7.2,39.0208 7.2,38.8 C7.2,38.5792 7.0208,38.4 6.8,38.4 L3.6,38.4 C2.056,38.4 0.8,37.144 0.8,35.6 L0.8,3.6 C0.8,2.056 2.056,0.8 3.6,0.8 L6.8,0.8 C7.0208,0.8 7.2,0.6208 7.2,0.4 C7.2,0.1792 7.0208,0 6.8,0 L3.6,0 C1.6152,0 0,1.6152 0,3.6 Z" id="Path" fill="#000000"></path>
                    <circle id="Oval" fill="#000000" cx="3.6" cy="3.6" r="1"></circle>
                    <path d="M17.2,3.2 L20.4,3.2 C20.6208,3.2 20.8,3.0208 20.8,2.8 C20.8,2.5792 20.6208,2.4 20.4,2.4 L17.2,2.4 C16.9792,2.4 16.8,2.5792 16.8,2.8 C16.8,3.0208 16.9792,3.2 17.2,3.2 Z" id="Path" fill="#000000"></path>
                    <path d="M10.4,5.2 L10.4,30.8 C10.4,31.0208 10.5792,31.2 10.8,31.2 L26.8,31.2 C27.0208,31.2 27.2,31.0208 27.2,30.8 L27.2,5.2 C27.2,4.9792 27.0208,4.8 26.8,4.8 L10.8,4.8 C10.5792,4.8 10.4,4.9792 10.4,5.2 Z M11.2,5.6 L26.4,5.6 L26.4,30.4 L11.2,30.4 L11.2,5.6 Z" id="Shape" fill="#000000"></path>
                    <path d="M18.8,32.8 C17.6976,32.8 16.8,33.6968 16.8,34.8 C16.8,35.9032 17.6976,36.8 18.8,36.8 C19.9024,36.8 20.8,35.9032 20.8,34.8 C20.8,33.6968 19.9024,32.8 18.8,32.8 Z M18.8,36 C18.1384,36 17.6,35.4616 17.6,34.8 C17.6,34.1384 18.1384,33.6 18.8,33.6 C19.4616,33.6 20,34.1384 20,34.8 C20,35.4616 19.4616,36 18.8,36 Z" id="Shape" fill="#000000"></path>
                </g>
            </g>
        </g>
    </g>
</svg>