<?xml version="1.0" encoding="UTF-8"?>
<svg width="27px" height="36px" viewBox="0 0 27 36" version="1.1" xmlns="http://www.w3.org/2000/svg" xmlns:xlink="http://www.w3.org/1999/xlink">
    <!-- Generator: Sketch 61.1 (89650) - https://sketch.com -->
    <title>iphone</title>
    <desc>Created with Sketch.</desc>
    <g id="UI_Desktop" stroke="none" stroke-width="1" fill="none" fill-rule="evenodd">
        <g id="0.2-Login_nuevoyusuario_4.1" transform="translate(-1060.000000, -566.000000)" fill="#000000" fill-rule="nonzero">
            <g id="MOBILE" transform="translate(1025.000000, 558.000000)">
                <g id="iphone" transform="translate(35.000000, 8.000000)">
                    <path d="M7.2,3.24 L7.2,32.04 C7.2,33.82632 8.65368,35.28 10.44,35.28 L23.4,35.28 C25.18632,35.28 26.64,33.82632 26.64,32.04 L26.64,3.24 C26.64,1.45368 25.18632,0 23.4,0 L10.44,0 C8.65368,0 7.2,1.45368 7.2,3.24 Z M25.92,3.24 L25.92,32.04 C25.92,33.4296 24.7896,34.56 23.4,34.56 L10.44,34.56 C9.0504,34.56 7.92,33.4296 7.92,32.04 L7.92,3.24 C7.92,1.8504 9.0504,0.72 10.44,0.72 L23.4,0.72 C24.7896,0.72 25.92,1.8504 25.92,3.24 Z" id="Shape"></path>
                    <path d="M0,3.24 L0,32.04 C0,33.82632 1.45368,35.28 3.24,35.28 L6.12,35.28 C6.31872,35.28 6.48,35.11872 6.48,34.92 C6.48,34.72128 6.31872,34.56 6.12,34.56 L3.24,34.56 C1.8504,34.56 0.72,33.4296 0.72,32.04 L0.72,3.24 C0.72,1.8504 1.8504,0.72 3.24,0.72 L6.12,0.72 C6.31872,0.72 6.48,0.55872 6.48,0.36 C6.48,0.16128 6.31872,0 6.12,0 L3.24,0 C1.45368,0 0,1.45368 0,3.24 Z" id="Path"></path>
                    <circle id="Oval" cx="3.24" cy="3.24" r="1"></circle>
                    <path d="M15.48,2.88 L18.36,2.88 C18.55872,2.88 18.72,2.71872 18.72,2.52 C18.72,2.32128 18.55872,2.16 18.36,2.16 L15.48,2.16 C15.28128,2.16 15.12,2.32128 15.12,2.52 C15.12,2.71872 15.28128,2.88 15.48,2.88 Z" id="Path"></path>
                    <path d="M9.36,4.68 L9.36,27.72 C9.36,27.91872 9.52128,28.08 9.72,28.08 L24.12,28.08 C24.31872,28.08 24.48,27.91872 24.48,27.72 L24.48,4.68 C24.48,4.48128 24.31872,4.32 24.12,4.32 L9.72,4.32 C9.52128,4.32 9.36,4.48128 9.36,4.68 Z M10.08,5.04 L23.76,5.04 L23.76,27.36 L10.08,27.36 L10.08,5.04 Z" id="Shape"></path>
                    <path d="M16.92,29.52 C15.92784,29.52 15.12,30.32712 15.12,31.32 C15.12,32.31288 15.92784,33.12 16.92,33.12 C17.91216,33.12 18.72,32.31288 18.72,31.32 C18.72,30.32712 17.91216,29.52 16.92,29.52 Z M16.92,32.4 C16.32456,32.4 15.84,31.91544 15.84,31.32 C15.84,30.72456 16.32456,30.24 16.92,30.24 C17.51544,30.24 18,30.72456 18,31.32 C18,31.91544 17.51544,32.4 16.92,32.4 Z" id="Shape"></path>
                </g>
            </g>
        </g>
    </g>
</svg>