<?xml version="1.0" encoding="UTF-8"?>
<svg width="49px" height="21px" viewBox="0 0 49 21" version="1.1" xmlns="http://www.w3.org/2000/svg" xmlns:xlink="http://www.w3.org/1999/xlink">
    <!-- Generator: Sketch 61.1 (89650) - https://sketch.com -->
    <title>Group</title>
    <desc>Created with Sketch.</desc>
    <g id="UI_Desktop" stroke="none" stroke-width="1" fill="none" fill-rule="evenodd">
        <g id="0.2-Login_nuevoyusuario_5.1" transform="translate(-825.000000, -670.000000)">
            <g id="Proyector" transform="translate(801.000000, 644.000000)">
                <g id="Group" transform="translate(24.000000, 26.000000)">
                    <rect id="Rectangle" fill="#E3EEEC" x="1" y="2" width="47" height="15" rx="1"></rect>
                    <path d="M47.3398438,1.8701172 L21.5109863,1.8701172 C20.0404663,0.8792725 18.270874,0.2998047 16.368164,0.2998047 C14.465454,0.2998047 12.6956786,0.8792725 11.2249755,1.8701172 L1.6503905,1.8701172 C0.7402344,1.8701172 0,2.6103516 0,3.5205078 L0,15.5302734 C0,16.4453125 0.7402344,17.1904297 1.6503906,17.1904297 L3.1792602,17.1904297 L3.8447265,20.3046875 C3.8945312,20.5351563 4.0976562,20.7001953 4.3339843,20.7001953 L8.8339843,20.7001953 C9.0703124,20.7001953 9.2734374,20.5351562 9.3232421,20.3046875 L9.9887084,17.1904297 L11.2282104,17.1904297 C12.6983032,18.1799317 14.4667968,18.7587891 16.368164,18.7587891 C18.2695312,18.7587891 20.0378417,18.1799317 21.5077514,17.1904297 L39.012268,17.1904297 L39.6777343,20.3046875 C39.727539,20.5351563 39.930664,20.7001953 40.1669921,20.7001953 L44.6669921,20.7001953 C44.9033202,20.7001953 45.1064452,20.5351562 45.1562499,20.3046875 L45.8217162,17.1904297 L47.3398436,17.1904297 C48.2548828,17.1904297 49,16.4453125 49,15.5302734 L49,3.5205078 C49,2.6103516 48.2548828,1.8701172 47.3398438,1.8701172 Z M8.4296875,19.7001953 L4.7382813,19.7001953 L4.2021485,17.1904297 L8.9658204,17.1904297 L8.4296875,19.7001953 Z M9.5839844,16.1904297 L3.5839844,16.1904297 L1.6503906,16.1904297 C1.2861328,16.1904297 1,15.9003906 1,15.5302734 L1,3.5205078 C1,3.15625 1.2861328,2.8701172 1.6503906,2.8701172 L9.994812,2.8701172 C8.2388306,4.5513916 7.1386719,6.9122315 7.1386719,9.5292969 C7.1386719,12.147461 8.2397461,14.5090332 9.9969483,16.1904297 L9.5839844,16.1904297 L9.5839844,16.1904297 Z M16.3681641,17.7587891 C11.8300782,17.7587891 8.1386719,14.0673828 8.1386719,9.5292969 C8.1386719,4.991211 11.8300782,1.2998047 16.3681641,1.2998047 C20.9052735,1.2998047 24.5966797,4.991211 24.5966797,9.5292969 C24.5966797,14.0673828 20.9052734,17.7587891 16.3681641,17.7587891 Z M44.2626953,19.7001953 L40.571289,19.7001953 L40.0351562,17.1904297 L44.7988281,17.1904297 L44.2626953,19.7001953 Z M48,15.5302734 C48,15.8945312 47.7041016,16.1904297 47.3398437,16.1904297 L45.4169921,16.1904297 L39.4169921,16.1904297 L22.7388916,16.1904297 C24.4958496,14.5090332 25.5966797,12.1474609 25.5966797,9.5292969 C25.5966797,6.9122315 24.4967651,4.5513916 22.7410278,2.8701172 L47.3398437,2.8701172 C47.7041016,2.8701172 48,3.1621094 48,3.5205078 L48,15.5302734 Z" id="Shape" fill="#000000" fill-rule="nonzero"></path>
                    <circle id="Oval" fill="#CADFDC" cx="16.5" cy="9.5" r="8.5"></circle>
                    <path d="M16.3681641,2.9414063 C16.0917969,2.9414063 15.8681641,3.1650391 15.8681641,3.4414063 C15.8681641,3.7177735 16.0917969,3.9414063 16.3681641,3.9414063 C19.4492188,3.9414063 21.9560547,6.4482422 21.9560547,9.5292969 C21.9560547,9.8056641 22.1796875,10.0292969 22.4560547,10.0292969 C22.7324219,10.0292969 22.9560547,9.8056641 22.9560547,9.5292969 C22.9560547,5.8964844 20.0009766,2.9414063 16.3681641,2.9414063 Z" id="Path" fill="#000000" fill-rule="nonzero"></path>
                    <path d="M16.3681641,5.9619141 C14.4013672,5.9619141 12.8007813,7.5625 12.8007813,9.5292969 C12.8007813,11.4960938 14.4013672,13.0966797 16.3681641,13.0966797 C18.334961,13.0966797 19.9355469,11.4960938 19.9355469,9.5292969 C19.9355469,7.5625 18.3349609,5.9619141 16.3681641,5.9619141 Z M16.3681641,12.0966797 C14.9521485,12.0966797 13.8007813,10.9453125 13.8007813,9.5292969 C13.8007813,8.1132813 14.9521485,6.9619141 16.3681641,6.9619141 C17.7841797,6.9619141 18.9355469,8.1132813 18.9355469,9.5292969 C18.9355469,10.9453125 17.7841797,12.0966797 16.3681641,12.0966797 Z" id="Shape" fill="#000000" fill-rule="nonzero"></path>
                    <path d="M5.2636719,3.9501953 L3.0136719,3.9501953 C2.7373047,3.9501953 2.5136719,4.1738281 2.5136719,4.4501953 C2.5136719,4.7265625 2.7373047,4.9501953 3.0136719,4.9501953 L5.2636719,4.9501953 C5.5400391,4.9501953 5.7636719,4.7265625 5.7636719,4.4501953 C5.7636719,4.1738281 5.5400391,3.9501953 5.2636719,3.9501953 Z" id="Path" fill="#000000" fill-rule="nonzero"></path>
                    <path d="M32.0556641,5.0986328 C31.7792969,5.0986328 31.5556641,5.3222656 31.5556641,5.5986328 L31.5556641,13.4619141 C31.5556641,13.7382813 31.7792969,13.9619141 32.0556641,13.9619141 C32.3320313,13.9619141 32.5556641,13.7382813 32.5556641,13.4619141 L32.5556641,5.5986328 C32.5556641,5.3222656 32.3320313,5.0986328 32.0556641,5.0986328 Z" id="Path" fill="#000000" fill-rule="nonzero"></path>
                    <path d="M37.5556641,5.0986328 C37.2792969,5.0986328 37.0556641,5.3222656 37.0556641,5.5986328 L37.0556641,13.4619141 C37.0556641,13.7382813 37.2792969,13.9619141 37.5556641,13.9619141 C37.8320313,13.9619141 38.0556641,13.7382813 38.0556641,13.4619141 L38.0556641,5.5986328 C38.0556641,5.3222656 37.8320313,5.0986328 37.5556641,5.0986328 Z" id="Path" fill="#000000" fill-rule="nonzero"></path>
                    <path d="M43.0556641,5.0986328 C42.7792969,5.0986328 42.5556641,5.3222656 42.5556641,5.5986328 L42.5556641,13.4619141 C42.5556641,13.7382813 42.7792969,13.9619141 43.0556641,13.9619141 C43.3320313,13.9619141 43.5556641,13.7382813 43.5556641,13.4619141 L43.5556641,5.5986328 C43.5556641,5.3222656 43.3320313,5.0986328 43.0556641,5.0986328 Z" id="Path" fill="#000000" fill-rule="nonzero"></path>
                </g>
            </g>
        </g>
    </g>
</svg>