<?xml version="1.0" encoding="UTF-8"?>
<svg width="47px" height="36px" viewBox="0 0 47 36" version="1.1" xmlns="http://www.w3.org/2000/svg" xmlns:xlink="http://www.w3.org/1999/xlink">
    <!-- Generator: Sketch 61.1 (89650) - https://sketch.com -->
    <title>smart-tv (1)</title>
    <desc>Created with Sketch.</desc>
    <g id="UI_Desktop" stroke="none" stroke-width="1" fill="none" fill-rule="evenodd">
        <g id="0.2-Login_nuevoyusuario_5.1" transform="translate(-938.000000, -659.000000)" fill-rule="nonzero">
            <g id="Smart-TV" transform="translate(913.000000, 643.000000)">
                <g id="smart-tv-(1)" transform="translate(25.000000, 16.000000)">
                    <g id="Group" transform="translate(0.630000, 0.630000)">
                        <path d="M22.4114062,34.065 L33.026836,34.065 C33.328125,34.065 33.5728125,33.8941406 33.5728125,33.6874219 L33.5728125,31.5892969 C33.5728125,31.3825781 33.3151172,31.2936328 33.026836,31.2120703 C31.6135547,30.8165625 29.8251562,30.5233594 27.8634375,30.3373828 L16.959375,30.3373828 C14.9973047,30.5233594 13.2089062,30.8165625 11.795625,31.2120703 C11.5073438,31.2936328 11.2496485,31.3825781 11.2496485,31.5892969 L11.2496485,33.6874219 C11.2496485,33.8941406 11.494336,34.065 11.795625,34.065 L22.4114062,34.065 Z" id="Path" fill="#E6E6E6"></path>
                        <path d="M17.3826562,31.1892187 L27.4398047,31.1892187 C27.671836,31.1892187 27.8634375,30.9979687 27.8634375,30.7659375 L27.8634375,28.4484375 L22.4036719,26.9950781 L16.959375,28.443164 L16.959375,30.7659375 C16.959375,30.9979687 17.150625,31.1892187 17.3826562,31.1892187 L17.3826562,31.1892187 Z" id="Path" fill="#B3B3B3"></path>
                        <path d="M16.959375,28.443164 C20.5948828,28.3514062 24.2275781,28.3514062 27.863086,28.4484375 C32.3866406,28.5655078 36.9073828,28.828125 41.4203906,29.2334765 C43.2242578,29.3941406 44.7753515,27.928125 44.7753515,26.128125 L44.7753515,3.16195308 C44.7753515,1.36195308 43.2242578,-0.10371096 41.4203906,0.05660154 C28.768711,1.19109375 16.0533985,1.21183596 3.40453125,0.05660154 C1.59574221,-0.10652346 0.04464846,1.35949221 0.04464846,3.16195308 L0.04464846,26.128125 C0.04464846,27.9309375 1.59574221,29.3969531 3.40453125,29.2334765 C7.91507808,28.8203906 12.4358203,28.558125 16.959375,28.443164 L16.959375,28.443164 Z" id="Path" fill="#F4F8F7"></path>
                        <path d="M3.16230471,26.5819922 C15.7626562,25.4320312 28.5904687,25.4116406 41.6576953,26.5819922 C41.9051953,26.6048437 42.111914,26.378086 42.111914,26.128125 L42.111914,3.16195308 C42.111914,2.91234375 41.9051953,2.68523442 41.6576953,2.7084375 C28.5904687,3.8784375 15.7626563,3.85804692 3.16230471,2.7084375 C2.91199221,2.68523442 2.70808596,2.91234375 2.70808596,3.16195308 L2.70808596,26.128125 C2.70808596,26.378086 2.91199221,26.6048437 3.16230471,26.5819922 Z" id="Path" fill="#E3EEEC"></path>
                        <path d="M17.5485937,19.6192969 L17.5485937,17.7989063 C17.5485937,17.5236328 17.3239453,17.299336 17.0511328,17.299336 L15.226875,17.299336 C14.9516015,17.299336 14.729414,17.5236328 14.729414,17.7989063 L14.729414,19.6192969 C14.729414,19.8945703 14.9516015,20.1188672 15.226875,20.1188672 L17.0511328,20.1188672 C17.3239453,20.1188672 17.5485937,19.8945703 17.5485937,19.6192969 Z" id="Path" fill="#EB5757"></path>
                        <path d="M23.3194922,20.1188672 C23.5951172,20.1188672 23.819414,19.8945703 23.819414,19.6192969 L23.819414,17.7989063 C23.819414,17.5236328 23.5951172,17.299336 23.3194922,17.299336 L21.4980469,17.299336 C21.2224219,17.299336 20.9977735,17.5236328 20.9977735,17.7989063 L20.9977735,19.6192969 C20.9977735,19.8945703 21.2224219,20.1188672 21.4980469,20.1188672 L23.3194922,20.1188672 Z" id="Path" fill="#E8C745"></path>
                        <path d="M27.7688672,20.1188672 L29.5903125,20.1188672 C29.8659375,20.1188672 30.090586,19.8945703 30.090586,19.6192969 L30.090586,17.7989063 C30.090586,17.5236328 29.8659375,17.299336 29.5903125,17.299336 L27.7688672,17.299336 C27.4932422,17.299336 27.2689453,17.5236328 27.2689453,17.7989063 L27.2689453,19.6192969 C27.2689453,19.8945703 27.4932422,20.1188672 27.7688672,20.1188672 L27.7688672,20.1188672 Z" id="Path" fill="#55CF63"></path>
                        <path d="M2.71308596,14.645039 C2.71308596,9.11777346 2.71308596,5.42601558 2.71308596,3.16195308 C2.71308596,-1.29972654 2.71308596,-0.21339846 2.71308596,3.32261721 L2.71308596,14.645039 Z M2.70808596,26.2863281 C2.70808596,37.9378125 2.70808596,12.4551562 2.70808596,3.32261721 L2.70808596,3.16195308 C2.70808596,3.12890625 2.71054692,3.09550779 2.71828125,3.06246096 C2.83816404,1.60417971 3.97617192,0.41589846 5.39964846,0.22992192 C4.73378904,0.17648442 4.06792971,0.11777346 3.40453125,0.05660154 C1.59574221,-0.10652346 0.04464846,1.35949221 0.04464846,3.16195308 L0.04464846,26.128125 C0.04464846,27.6936328 1.21570308,29.0067187 2.70808596,29.2155469 C2.93273442,29.2464844 3.16476558,29.2538672 3.40453125,29.2334765 C3.78210942,29.1979687 4.1596875,29.1645703 4.53726558,29.1315235 C3.46570308,28.6421485 2.70808596,27.545625 2.70808596,26.2863281 Z" id="Shape" fill="#CADFDC"></path>
                        <path d="M5.49667971,26.128125 L5.49667971,3.16195308 C5.49667971,3.07792971 5.49914058,2.99109375 5.506875,2.90953125 C4.72359375,2.84589846 3.94277346,2.77980471 3.16230471,2.7084375 C2.94539058,2.68769529 2.76152346,2.85609375 2.71828125,3.0628125 C2.71054692,3.09585942 2.70808596,3.12890625 2.70808596,3.16230471 L2.70808596,14.6453906 L2.70808596,26.1284765 C2.70808596,26.378086 2.91234375,26.6051953 3.16230471,26.5819922 C3.94277346,26.510625 4.72359375,26.4445313 5.506875,26.3805469 C5.49914058,26.2965235 5.49667971,26.2125 5.49667971,26.128125 L5.49667971,26.128125 Z" id="Path" fill="#CADFDC"></path>
                        <path d="M19.0870313,30.3377344 L19.0870313,28.3999219 C18.3779297,28.4101172 17.6684765,28.425586 16.959375,28.443164 L16.959375,30.7659375 C16.959375,30.9979688 17.150625,31.1892188 17.3830078,31.1892188 L19.5082031,31.1892188 C19.2758203,31.1892188 19.0870313,30.9979688 19.0870313,30.7659375 L19.0870313,30.3377344 Z" id="Path" fill="#888B99"></path>
                        <path d="M11.795625,31.2120703 C11.5073438,31.2936328 11.2496485,31.3829297 11.2496485,31.5892969 L11.2496485,33.6877735 C11.2496485,33.8941406 11.4946875,34.065 11.795625,34.065 L14.9361328,34.065 C14.6351953,34.065 14.3876953,33.8941406 14.3876953,33.6877735 L14.3876953,31.5892969 C14.3876953,31.3829297 14.6478515,31.2936328 14.9361328,31.2120703 C15.5457422,31.041211 16.2246094,30.8907422 16.959375,30.7582031 L16.959375,30.3377344 C14.9973047,30.523711 13.2089063,30.816914 11.795625,31.2120703 L11.795625,31.2120703 Z" id="Path" fill="#B3B3B3"></path>
                    </g>
                    <path d="M27.7815235,14.4263672 C27.8936719,14.5255078 28.0135547,14.5764844 28.1464453,14.5764844 C28.2789844,14.5764844 28.3964063,14.5255078 28.4934375,14.4263672 C28.5901172,14.326875 28.6386328,14.2094531 28.6386328,14.0744531 L28.6386328,10.9613672 L29.3044922,10.9613672 C29.4271875,10.9613672 29.5340625,10.9153125 29.6233594,10.8263672 C29.7126563,10.7370703 29.758711,10.6326563 29.758711,10.5075 C29.758711,10.3774219 29.7126562,10.268086 29.6233594,10.178789 C29.5340625,10.0870313 29.4271875,10.0409765 29.3044922,10.0409765 L26.9651953,10.0409765 C26.8428515,10.0409765 26.735625,10.0870313 26.648789,10.178789 C26.5619531,10.268086 26.518711,10.374961 26.518711,10.4948438 C26.518711,10.6273828 26.564414,10.7370703 26.6565235,10.8239063 C26.7458203,10.9103906 26.8477735,10.9539844 26.9599219,10.9539844 L27.6310547,10.9539844 L27.6310547,14.0744531 C27.6310547,14.2094531 27.6820312,14.326875 27.7815235,14.4263672 Z" id="Path" fill="#000000"></path>
                    <path d="M38.381836,10.2652735 L37.4428125,12.8046094 L36.5041406,10.2652735 C36.4173047,10.0458985 36.2615625,9.9365625 36.0372656,9.9365625 C35.8969922,9.9365625 35.7742969,9.98472654 35.6723438,10.0817578 C35.5728515,10.178789 35.521875,10.2933985 35.521875,10.4259375 C35.521875,10.4719922 35.524336,10.5127735 35.5320703,10.5507422 C35.5422656,10.5866015 35.552461,10.6249219 35.5654688,10.6628906 L36.9457031,14.1226172 C37.0142578,14.2832813 37.083164,14.3929688 37.1496094,14.4464063 C37.2160547,14.5001953 37.3204688,14.5255078 37.4607422,14.5255078 C37.6727344,14.5255078 37.8309375,14.3929688 37.940625,14.1226172 L39.3208594,10.6628906 C39.3489844,10.5866015 39.3641015,10.509961 39.3641015,10.4259375 C39.3641015,10.2909375 39.313125,10.1735156 39.2136328,10.0792969 C39.1141406,9.98226558 38.9914453,9.9365625 38.84625,9.9365625 C38.6191406,9.9365625 38.4633985,10.0458985 38.381836,10.2652735 L38.381836,10.2652735 Z" id="Path" fill="#000000"></path>
                    <path d="M32.9044922,14.3036719 C33.0166406,14.403164 33.1365235,14.4516797 33.2690625,14.4516797 C33.4019531,14.4516797 33.519375,14.403164 33.6160547,14.3036719 C33.713086,14.2041797 33.7616015,14.0846485 33.7616015,13.9492969 L33.7616015,10.836211 L34.427461,10.836211 C34.5501562,10.836211 34.6570312,10.7905078 34.7463281,10.7036719 C34.835625,10.6147265 34.8816797,10.5075 34.8816797,10.3826953 C34.8816797,10.2550781 34.835625,10.1453906 34.7463281,10.0536328 C34.6570312,9.961875 34.5498047,9.91617192 34.427461,9.91617192 L32.088164,9.91617192 C31.9654687,9.91617192 31.8585938,9.961875 31.7717578,10.0536328 C31.6849219,10.1453906 31.6416797,10.2501562 31.6416797,10.370039 C31.6416797,10.5025781 31.6873828,10.611914 31.7794922,10.69875 C31.868789,10.785586 31.9707422,10.831289 32.0828906,10.831289 L32.7540235,10.831289 L32.7540235,13.9492969 C32.7536719,14.0846485 32.8046485,14.2041797 32.9044922,14.3036719 Z" id="Path" fill="#000000"></path>
                    <path d="M25.821914,14.3089453 C25.9214063,14.2017188 25.9727344,14.0821875 25.9727344,13.9492969 C25.9727344,13.8297656 25.9291406,13.7200781 25.8398438,13.6255078 L24.8477344,12.5395313 C25.1026172,12.4885547 25.2942188,12.4221094 25.4190235,12.3405469 C25.7505469,12.1109765 25.9164844,11.7696094 25.9164844,11.3157422 C25.9164844,10.9051172 25.7684765,10.5711328 25.4777344,10.3113281 C25.1841797,10.0511719 24.814336,9.92355471 24.3678515,9.92355471 L23.2122656,9.92355471 C23.0667187,9.92355471 22.944375,9.97207029 22.8448828,10.0715625 C22.7453906,10.1710547 22.694414,10.2958594 22.694414,10.4438672 L22.694414,13.9366406 C22.694414,14.0821875 22.7453906,14.2041797 22.8448828,14.3036719 C22.9570312,14.403164 23.0797265,14.4516797 23.2122656,14.4516797 C23.352539,14.4516797 23.469961,14.405625 23.5669922,14.3089453 C23.661211,14.2147265 23.7097265,14.0948438 23.7097265,13.9545703 L23.7097265,12.5954297 L25.0565625,14.240039 C25.1739844,14.3827735 25.306875,14.4516797 25.4545313,14.4516797 C25.5976172,14.4516797 25.7175,14.405625 25.821914,14.3089453 Z M24.373125,11.8560938 L23.7146485,11.8560938 L23.7146485,10.8414844 L24.3601172,10.8414844 C24.5183203,10.8414844 24.6483985,10.892461 24.7478906,10.9919531 C24.8551172,11.0861719 24.9089063,11.2035938 24.9089063,11.3385938 C24.9089063,11.4813281 24.8551172,11.601211 24.7507031,11.703164 C24.6434765,11.8051172 24.5183203,11.8560938 24.373125,11.8560938 Z" id="Shape" fill="#000000"></path>
                    <path d="M9.67007808,13.6332422 C9.55546875,13.7200781 9.41273442,13.7633203 9.24152346,13.7633203 C9.07066404,13.7633203 8.85375,13.7148047 8.58867192,13.620586 C8.36894529,13.5414844 8.22128904,13.5007031 8.14710942,13.5007031 C8.02230471,13.5007031 7.92,13.5467578 7.83597654,13.6385156 C7.75441404,13.7302735 7.71082029,13.8424219 7.71082029,13.9802344 L7.71082029,14.0108203 C7.71082029,14.2147265 7.85390625,14.383125 8.13445308,14.515664 C8.4178125,14.6482031 8.76972654,14.7142969 9.19054692,14.7142969 C9.70839846,14.7142969 10.1242969,14.576836 10.4382422,14.3015625 C10.7521875,14.0234765 10.9075781,13.6666406 10.9075781,13.2282422 C10.9075781,12.7617188 10.7240625,12.4147265 10.3542188,12.1904297 C10.1601562,12.065625 9.86414058,11.950664 9.47144529,11.843789 C9.16769529,11.7569531 8.98664058,11.6905078 8.92546875,11.6448047 C8.83863279,11.5734375 8.79292971,11.4967969 8.79292971,11.4152344 C8.79292971,11.3055469 8.84390625,11.21625 8.9409375,11.1448828 C9.03761721,11.0710547 9.1575,11.0351953 9.298125,11.0351953 C9.3796875,11.0351953 9.49957029,11.0559375 9.6525,11.0967187 L9.83109375,11.1603515 C9.9815625,11.2088672 10.09125,11.2341797 10.1629688,11.2341797 C10.2853125,11.2341797 10.3897265,11.1884765 10.4765625,11.0939062 C10.5609375,11.0021485 10.6041797,10.89 10.6041797,10.7627344 C10.6041797,10.5714844 10.4867578,10.4132812 10.251914,10.285664 C10.0174219,10.1608594 9.72667971,10.0972265 9.3796875,10.0972265 C8.90226558,10.0972265 8.50710942,10.2297656 8.1984375,10.4948437 C7.88695308,10.7599219 7.73121096,11.0967187 7.73121096,11.5069922 C7.73121096,11.9123437 7.88449221,12.2157422 8.19070308,12.4147265 C8.34890625,12.5191406 8.63964846,12.6288281 9.06046875,12.7511719 C9.33363279,12.8327344 9.51714846,12.8939063 9.60925779,12.9371485 C9.69855471,12.9779297 9.7621875,13.0264453 9.79523442,13.0851563 C9.82863279,13.1438672 9.84375,13.2127735 9.84375,13.2915235 C9.84375,13.4317969 9.7875,13.5439453 9.67007808,13.6332422 Z" id="Path" fill="#000000"></path>
                    <path d="M20.6736328,13.6764844 L20.855039,14.240039 C20.9341406,14.4696094 21.0870703,14.5817578 21.3141797,14.5817578 C21.4519922,14.5817578 21.5666015,14.5409765 21.6636328,14.4590625 C21.763125,14.3623828 21.8116406,14.2604297 21.8116406,14.1532031 C21.8116406,14.0463281 21.7961719,13.946836 21.763125,13.8550781 L20.5435547,10.5433594 C20.4085547,10.1710547 20.1659765,9.98472654 19.8165235,9.98472654 C19.4642578,9.98472654 19.2195703,10.1710547 19.0842187,10.5433594 L17.8470703,13.8501563 C17.8164844,13.9239844 17.8034765,14.0080078 17.8034765,14.0973047 C17.8034765,14.2351172 17.8495312,14.3497265 17.946211,14.4467578 C18.0407812,14.5409765 18.1582031,14.5894922 18.2984765,14.5894922 C18.553711,14.5894922 18.714375,14.4720703 18.7857422,14.240039 L18.9516797,13.676836 L20.6736328,13.676836 L20.6736328,13.6764844 Z M19.8165235,11.027461 L20.3702344,12.7740235 L19.2371485,12.7691015 L19.8165235,11.027461 Z" id="Shape" fill="#000000"></path>
                    <path d="M14.8798828,14.2351172 L15.6273047,11.6929688 L15.9873047,14.1609375 C16.0358203,14.4798047 16.2066797,14.6376563 16.4974219,14.6376563 C16.6429688,14.6376563 16.7628515,14.5894922 16.8570703,14.492461 C16.9516406,14.3954297 16.9998047,14.270625 16.9998047,14.1176953 L16.9871485,14.0182031 L16.410586,10.5866015 C16.38,10.4336719 16.3033594,10.3060547 16.1757422,10.2065625 C16.0509375,10.1046094 15.9053906,10.0536328 15.7447265,10.0536328 C15.4001953,10.0536328 15.1783594,10.2220313 15.0788672,10.5560156 L14.3644922,12.9244922 L13.6627735,10.5560156 C13.553086,10.2220313 13.33125,10.0536328 12.996914,10.0536328 C12.8309765,10.0536328 12.6833203,10.1046094 12.5557031,10.2090235 C12.425625,10.3109765 12.3489844,10.4385938 12.3261328,10.5866015 L11.7467578,14.0182031 C11.739375,14.0385938 11.7341015,14.0716406 11.7341015,14.1176953 C11.7341015,14.2657031 11.7826172,14.3905078 11.876836,14.49 C11.9738672,14.5894922 12.09375,14.6376563 12.2442187,14.6376563 C12.5353125,14.6376563 12.7008985,14.4798047 12.7469531,14.1609375 L13.1013281,11.6929688 L13.8491015,14.2351172 C13.9359375,14.5051172 14.1067969,14.6376563 14.3644922,14.6376563 C14.5174219,14.6376563 14.6295703,14.6095312 14.70375,14.5511719 C14.7754687,14.492461 14.8338281,14.3880469 14.8798828,14.2351172 Z" id="Path" fill="#000000"></path>
                    <path d="M42.741914,14.4175781 C43.1145703,14.4175781 43.4165625,14.115586 43.4165625,13.7429297 L43.4165625,3.79195308 C43.4165625,3.470625 43.2801562,3.16195308 43.0421485,2.94503904 C42.8182031,2.74078125 42.5211328,2.63882808 42.2275781,2.66625 C29.3758594,3.81726558 16.4650781,3.81726558 3.85382808,2.66660154 C3.55429692,2.63882808 3.26390625,2.73796875 3.03679692,2.94503904 C2.79949221,3.16160154 2.6634375,3.47027346 2.6634375,3.79195308 L2.6634375,26.758125 C2.6634375,27.0801563 2.79949221,27.3888281 3.03679692,27.6053906 C3.23894529,27.789961 3.49101558,27.8883985 3.75539058,27.8883985 C3.78808596,27.8883985 3.82078125,27.8869922 3.85347654,27.8838281 C16.4654297,26.7328125 29.376211,26.733164 42.2258203,27.8838281 C42.5207812,27.9105469 42.8182031,27.8096485 43.0421485,27.6053906 C43.2801562,27.3884765 43.4165625,27.0798047 43.4165625,26.758125 L43.4165625,17.9929687 C43.4165625,17.6203125 43.1145703,17.3183203 42.741914,17.3183203 C42.3692578,17.3183203 42.0672656,17.6203125 42.0672656,17.9929687 L42.0672656,26.5151953 C29.3238281,25.3905469 16.5234375,25.3901953 4.01273442,26.5148438 L4.01273442,4.03558596 C16.5234375,5.15988279 29.3217187,5.15988279 42.0672656,4.03523442 L42.0672656,13.7429297 C42.0672656,14.115586 42.3692578,14.4175781 42.741914,14.4175781 L42.741914,14.4175781 Z" id="Path" fill="#000000"></path>
                    <path d="M15.856875,21.4235156 L17.6811328,21.4235156 C18.3273047,21.4235156 18.8532422,20.896875 18.8532422,20.2492969 L18.8532422,18.4289063 C18.8532422,17.7813281 18.3273047,17.2546875 17.6811328,17.2546875 L15.856875,17.2546875 C15.2107031,17.2546875 14.6847656,17.7813281 14.6847656,18.4289063 L14.6847656,20.2492969 C14.6847656,20.896875 15.2107031,21.4235156 15.856875,21.4235156 Z M16.0340625,18.6039844 L17.5039453,18.6039844 L17.5039453,20.0745703 L16.0340625,20.0745703 L16.0340625,18.6039844 Z" id="Shape" fill="#000000"></path>
                    <path d="M22.1280469,21.4235156 L23.9494922,21.4235156 C24.5970703,21.4235156 25.1240625,20.896875 25.1240625,20.2492969 L25.1240625,18.4289063 C25.1240625,17.7813281 24.5970703,17.2546875 23.9494922,17.2546875 L22.1280469,17.2546875 C21.4804688,17.2546875 20.9534765,17.7813281 20.9534765,18.4289063 L20.9534765,20.2492969 C20.9534765,20.896875 21.4804688,21.4235156 22.1280469,21.4235156 L22.1280469,21.4235156 Z M22.3024219,18.6039844 L23.7751172,18.6039844 L23.7751172,20.0745703 L22.3024219,20.0745703 L22.3024219,18.6039844 Z" id="Shape" fill="#000000"></path>
                    <path d="M28.3988672,21.4235156 L30.2203125,21.4235156 C30.8682422,21.4235156 31.3952344,20.896875 31.3952344,20.2492969 L31.3952344,18.4289063 C31.3952344,17.7813281 30.8682422,17.2546875 30.2203125,17.2546875 L28.3988672,17.2546875 C27.751289,17.2546875 27.2242969,17.7813281 27.2242969,18.4289063 L27.2242969,20.2492969 C27.2242969,20.896875 27.751289,21.4235156 28.3988672,21.4235156 L28.3988672,21.4235156 Z M28.5735937,18.6039844 L30.0459375,18.6039844 L30.0459375,20.0745703 L28.5735937,20.0745703 L28.5735937,18.6039844 Z" id="Shape" fill="#000000"></path>
                    <path d="M44.8386328,0.98683596 C44.0627344,0.27703125 43.0245703,-0.07734375 41.990625,0.01476558 C35.879414,0.56144529 30.2153906,0.83917971 24.673711,0.86378904 C24.3010547,0.86519529 24.0004687,1.16859375 24.0022265,1.54125 C24.0039844,1.91285154 24.3052735,2.21273442 24.6765235,2.21273442 C30.2596875,2.188125 35.9613281,1.90898442 42.1105078,1.3584375 C42.7774219,1.299375 43.4232422,1.52050779 43.928086,1.98210942 C44.4382031,2.44898442 44.7310547,3.10886721 44.7310547,3.79195308 L44.7310547,26.758125 C44.7310547,27.441211 44.4382031,28.1010937 43.928086,28.5679687 C43.4232422,29.0295703 42.7777735,29.2510547 42.1108594,29.1916406 C37.5925781,28.7859375 33.0166406,28.5208594 28.5113672,28.403789 C24.9145312,28.3078125 21.2340235,28.3064063 17.5721485,28.3988672 C13.0398047,28.5134765 8.46351558,28.7803125 3.97125,29.1916406 C3.30433596,29.2521094 2.6578125,29.0313281 2.15296875,28.5700781 C1.64214846,28.1035547 1.34929692,27.4429687 1.34929692,26.758125 L1.34929692,3.79195308 C1.34929692,3.10710942 1.64214846,2.44652346 2.15296875,1.97964846 C2.6578125,1.51875 3.30292971,1.29796875 3.97054692,1.3584375 C9.60960942,1.87417971 15.3383203,2.15367192 21.4836328,2.21273442 L21.4903125,2.21273442 C21.8598047,2.21273442 22.1610937,1.91496096 22.1646094,1.54441404 C22.168125,1.17210942 21.8692969,0.86730471 21.4966406,0.8634375 C15.3882422,0.80507808 9.69574221,0.52734375 4.09289058,0.01476558 C3.05648442,-0.07875 2.01902346,0.27457029 1.24277346,0.98367192 C0.4528125,1.70578125 -2.84217094e-14,2.72917971 -2.84217094e-14,3.79195308 L-2.84217094e-14,26.758125 C-2.84217094e-14,27.82125 0.4528125,28.8446485 1.24277346,29.5664062 C1.93710942,30.200625 2.84097654,30.5500781 3.76488279,30.5500781 C3.87421875,30.5500781 3.98390625,30.5455078 4.09359375,30.5353125 C8.32851558,30.1478906 12.6383203,29.8908985 16.9147265,29.7682031 L16.9147265,30.3584765 C15.1091015,30.5542969 13.5035156,30.8404688 12.2417578,31.193086 C11.9583985,31.2732422 11.205,31.4866406 11.205,32.2192969 L11.205,34.3177735 C11.205,34.9076953 11.7411328,35.3696485 12.425625,35.3696485 L33.656836,35.3696485 C34.3413281,35.3696485 34.877461,34.9076953 34.877461,34.3177735 L34.877461,32.2192969 C34.877461,31.4866406 34.124414,31.2732422 33.8385937,31.1923828 C32.5789453,30.8404688 30.973711,30.5542969 29.168086,30.3584765 L29.168086,29.7734765 C33.4216406,29.8979297 37.7310937,30.1528125 41.990625,30.535664 C43.0252735,30.6277735 44.0627344,30.2733985 44.8386328,29.5635937 C45.627539,28.841836 46.08,27.8191406 46.08,26.7584765 L46.08,3.79230471 C46.08,2.73128904 45.627539,1.70859375 44.8386328,0.98683596 Z M27.818789,29.7372656 L27.818789,30.9716015 L27.818789,30.973711 L27.818789,31.1445703 L18.2640235,31.1445703 L18.2640235,30.973711 C18.2640235,30.9730078 18.2640235,30.9723047 18.2640235,30.9716015 L18.2640235,29.7330469 C21.462539,29.6623828 24.6698437,29.663789 27.818789,29.7372656 Z M33.528164,32.506875 L33.528164,34.0203515 L12.5542969,34.0203515 L12.5542969,32.506875 C12.5704687,32.5023047 12.5880469,32.4970312 12.6073828,32.4917578 C13.7749219,32.1651562 15.269414,31.8976172 16.9611328,31.7102344 C17.096836,32.1626953 17.5166015,32.4938672 18.0126562,32.4938672 L28.0698047,32.4938672 C28.5658594,32.4938672 28.985625,32.1626953 29.1213281,31.7102344 C30.8130469,31.8976172 32.307539,32.1651562 33.4729687,32.4910547 C33.4933594,32.4966797 33.5116406,32.5019531 33.528164,32.506875 L33.528164,32.506875 Z" id="Shape" fill="#000000"></path>
                </g>
            </g>
        </g>
    </g>
</svg>