<?xml version="1.0" encoding="UTF-8"?>
<svg width="36px" height="40px" viewBox="0 0 36 40" version="1.1" xmlns="http://www.w3.org/2000/svg" xmlns:xlink="http://www.w3.org/1999/xlink">
    <!-- Generator: Sketch 61.1 (89650) - https://sketch.com -->
    <title>004-touch-screen</title>
    <desc>Created with Sketch.</desc>
    <g id="UI_Desktop" stroke="none" stroke-width="1" fill="none" fill-rule="evenodd">
        <g id="0.2-Login_nuevoyusuario_5.1" transform="translate(-943.000000, -573.000000)" fill-rule="nonzero">
            <g id="Ipad" transform="translate(913.000000, 551.000000)">
                <g id="004-touch-screen" transform="translate(30.000000, 22.000000)">
                    <path d="M24.4,38.8 L2,38.8 C1.116,38.8 0.4,38.084 0.4,37.2 L0.4,2 C0.4,1.116 1.116,0.4 2,0.4 L24.4,0.4 C25.284,0.4 26,1.116 26,2 L26,37.2 C26,38.084 25.284,38.8 24.4,38.8 Z" id="Path" fill="#CADFDC"></path>
                    <path d="M2.8,38.8 L2,38.8 C1.12,38.8 0.4,38.08 0.4,37.2 L0.4,2 C0.4,1.12 1.12,0.4 2,0.4 L2.8,0.4 C1.92,0.4 1.2,1.12 1.2,2 L1.2,37.2 C1.2,38.08 1.92,38.8 2.8,38.8 Z" id="Path" fill="#E3EEEC"></path>
                    <path d="M34,38.8 L11.6,38.8 C10.716,38.8 10,38.084 10,37.2 L10,2 C10,1.116 10.716,0.4 11.6,0.4 L34,0.4 C34.884,0.4 35.6,1.116 35.6,2 L35.6,37.2 C35.6,38.084 34.884,38.8 34,38.8 Z" id="Path" fill="#F4F8F7"></path>
                    <circle id="Oval" fill="#2A2D2C" cx="22.8016" cy="3.6" r="1"></circle>
                    <circle id="Oval" fill="#2A2D2C" cx="3.6" cy="3.6" r="1"></circle>
                    <polygon id="Path" fill="#E3EEEC" points="12.4 6 33.2 6 33.2 32.4 12.4 32.4"></polygon>
                    <circle id="Oval" fill="#8CB5AD" cx="22.8" cy="35.6" r="1.6"></circle>
                    <polygon id="Path" fill="#CADFDC" points="12.4 32.4 33.2 6 33.2 32.4"></polygon>
                    <path d="M11.6,39.2 L34,39.2 C35.1032,39.2 36,38.3024 36,37.2 L36,2 C36,0.8976 35.1032,0 34,0 L11.6,0 C10.4976,0 9.6,0.8976 9.6,2 L9.6,37.2 C9.6,38.3024 10.4976,39.2 11.6,39.2 Z M10.4,2 C10.4,1.3384 10.9384,0.8 11.6,0.8 L34,0.8 C34.6616,0.8 35.2,1.3384 35.2,2 L35.2,37.2 C35.2,37.8616 34.6616,38.4 34,38.4 L11.6,38.4 C10.9384,38.4 10.4,37.8616 10.4,37.2 L10.4,2 Z" id="Shape" fill="#000000"></path>
                    <path d="M2,39.2 L8.4,39.2 C8.6208,39.2 8.8,39.0208 8.8,38.8 C8.8,38.5792 8.6208,38.4 8.4,38.4 L2,38.4 C1.3384,38.4 0.8,37.8616 0.8,37.2 L0.8,2 C0.8,1.3384 1.3384,0.8 2,0.8 L8.4,0.8 C8.6208,0.8 8.8,0.6208 8.8,0.4 C8.8,0.1792 8.6208,0 8.4,0 L2,0 C0.8976,0 0,0.8976 0,2 L0,37.2 C0,38.3024 0.8976,39.2 2,39.2 Z" id="Path" fill="#000000"></path>
                    <circle id="Oval" fill="#000000" cx="22.8016" cy="3.6" r="1"></circle>
                    <path d="M12.4,32.8 L33.2,32.8 C33.4208,32.8 33.6,32.6208 33.6,32.4 L33.6,6 C33.6,5.7792 33.4208,5.6 33.2,5.6 L12.4,5.6 C12.1792,5.6 12,5.7792 12,6 L12,32.4 C12,32.6208 12.1792,32.8 12.4,32.8 Z M12.8,6.4 L32.8,6.4 L32.8,32 L12.8,32 L12.8,6.4 Z" id="Shape" fill="#000000"></path>
                    <path d="M22.8,33.6 C21.6968,33.6 20.8,34.4976 20.8,35.6 C20.8,36.7024 21.6968,37.6 22.8,37.6 C23.9032,37.6 24.8,36.7024 24.8,35.6 C24.8,34.4976 23.9032,33.6 22.8,33.6 Z M22.8,36.8 C22.1384,36.8 21.6,36.2616 21.6,35.6 C21.6,34.9384 22.1384,34.4 22.8,34.4 C23.4616,34.4 24,34.9384 24,35.6 C24,36.2616 23.4616,36.8 22.8,36.8 Z" id="Shape" fill="#000000"></path>
                    <circle id="Oval" fill="#000000" cx="3.6" cy="3.6" r="1"></circle>
                </g>
            </g>
        </g>
    </g>
</svg>