<?xml version="1.0" encoding="UTF-8"?>
<svg width="33px" height="36px" viewBox="0 0 33 36" version="1.1" xmlns="http://www.w3.org/2000/svg" xmlns:xlink="http://www.w3.org/1999/xlink">
    <!-- Generator: Sketch 61.1 (89650) - https://sketch.com -->
    <title>004-touch-screen</title>
    <desc>Created with Sketch.</desc>
    <g id="UI_Desktop" stroke="none" stroke-width="1" fill="none" fill-rule="evenodd">
        <g id="0.2-Login_nuevoyusuario_4.1" transform="translate(-945.000000, -566.000000)" fill-rule="nonzero">
            <g id="Ipad" transform="translate(913.000000, 558.000000)">
                <g id="004-touch-screen" transform="translate(32.000000, 8.000000)">
                    <path d="M2.52,34.92 L1.8,34.92 C1.008,34.92 0.36,34.272 0.36,33.48 L0.36,1.8 C0.36,1.008 1.008,0.36 1.8,0.36 L2.52,0.36 C1.728,0.36 1.08,1.008 1.08,1.8 L1.08,33.48 C1.08,34.272 1.728,34.92 2.52,34.92 Z" id="Path" fill="#E3EEEC"></path>
                    <circle id="Oval" fill="#2A2D2C" cx="20.52144" cy="3.24" r="1"></circle>
                    <circle id="Oval" fill="#2A2D2C" cx="3.24" cy="3.24" r="1"></circle>
                    <path d="M10.44,35.28 L30.6,35.28 C31.59288,35.28 32.4,34.47216 32.4,33.48 L32.4,1.8 C32.4,0.80784 31.59288,0 30.6,0 L10.44,0 C9.44784,0 8.64,0.80784 8.64,1.8 L8.64,33.48 C8.64,34.47216 9.44784,35.28 10.44,35.28 Z M9.36,1.8 C9.36,1.20456 9.84456,0.72 10.44,0.72 L30.6,0.72 C31.19544,0.72 31.68,1.20456 31.68,1.8 L31.68,33.48 C31.68,34.07544 31.19544,34.56 30.6,34.56 L10.44,34.56 C9.84456,34.56 9.36,34.07544 9.36,33.48 L9.36,1.8 Z" id="Shape" fill="#000000"></path>
                    <path d="M1.8,35.28 L7.56,35.28 C7.75872,35.28 7.92,35.11872 7.92,34.92 C7.92,34.72128 7.75872,34.56 7.56,34.56 L1.8,34.56 C1.20456,34.56 0.72,34.07544 0.72,33.48 L0.72,1.8 C0.72,1.20456 1.20456,0.72 1.8,0.72 L7.56,0.72 C7.75872,0.72 7.92,0.55872 7.92,0.36 C7.92,0.16128 7.75872,0 7.56,0 L1.8,0 C0.80784,0 0,0.80784 0,1.8 L0,33.48 C0,34.47216 0.80784,35.28 1.8,35.28 Z" id="Path" fill="#000000"></path>
                    <circle id="Oval" fill="#000000" cx="20.52144" cy="3.24" r="1"></circle>
                    <path d="M11.16,29.52 L29.88,29.52 C30.07872,29.52 30.24,29.35872 30.24,29.16 L30.24,5.4 C30.24,5.20128 30.07872,5.04 29.88,5.04 L11.16,5.04 C10.96128,5.04 10.8,5.20128 10.8,5.4 L10.8,29.16 C10.8,29.35872 10.96128,29.52 11.16,29.52 Z M11.52,5.76 L29.52,5.76 L29.52,28.8 L11.52,28.8 L11.52,5.76 Z" id="Shape" fill="#000000"></path>
                    <path d="M20.52,30.24 C19.52712,30.24 18.72,31.04784 18.72,32.04 C18.72,33.03216 19.52712,33.84 20.52,33.84 C21.51288,33.84 22.32,33.03216 22.32,32.04 C22.32,31.04784 21.51288,30.24 20.52,30.24 Z M20.52,33.12 C19.92456,33.12 19.44,32.63544 19.44,32.04 C19.44,31.44456 19.92456,30.96 20.52,30.96 C21.11544,30.96 21.6,31.44456 21.6,32.04 C21.6,32.63544 21.11544,33.12 20.52,33.12 Z" id="Shape" fill="#000000"></path>
                    <circle id="Oval" fill="#000000" cx="3.24" cy="3.24" r="1"></circle>
                </g>
            </g>
        </g>
    </g>
</svg>