<?xml version="1.0" encoding="UTF-8"?>
<svg width="24px" height="24px" viewBox="0 0 24 24" version="1.1" xmlns="http://www.w3.org/2000/svg" xmlns:xlink="http://www.w3.org/1999/xlink">
    <!-- Generator: Sketch 60 (88103) - https://sketch.com -->
    <title>Fill 47</title>
    <desc>Created with Sketch.</desc>
    <g id="UI_Desktop" stroke="none" stroke-width="1" fill="none" fill-rule="evenodd" fill-opacity="0.8" opacity="0.7">
        <g id="0.3-Menu" transform="translate(-1137.000000, -761.000000)" fill="#FFFFFF">
            <g id="Footer" transform="translate(0.000000, 665.000000)">
                <g id="Group-8" transform="translate(116.000000, 48.000000)">
                    <g id="RRSS" transform="translate(883.000000, 48.000000)">
                        <path d="M140.797754,0 C139.25174,0 138,1.25173965 138,2.79775356 C138,4.34376748 139.25174,5.59550713 140.797754,5.59550713 C142.343767,5.59550713 143.59497,4.34376748 143.59497,2.79775356 C143.59497,1.25173965 142.343767,0 140.797754,0 Z M161.867362,12.9131631 C161.498982,9.87966796 160.115678,7.99534603 156.022151,7.99534603 C153.621775,7.99534603 152.002193,8.87870584 151.32504,10.1599803 L151.251471,10.1599803 L151.251471,7.99534603 L146.789564,7.99534603 L146.789564,24 L151.457678,24 L151.457678,16.0642606 C151.457678,13.9726579 151.869555,11.9562348 154.43264,11.9562348 C157.008077,11.9562348 157.199248,14.3410377 157.199248,16.2108608 L157.199248,24 L161.999463,24 L161.999463,15.2098986 C161.999463,14.3850715 161.954892,13.619851 161.867362,12.9131631 Z M138,12.250509 L138,24 L143.59497,24 L143.59497,7.99534603 L138,7.99534603 L138,12.250509 L138,12.250509 Z" id="Fill-47"></path>
                    </g>
                </g>
            </g>
        </g>
    </g>
</svg>