<?xml version="1.0" encoding="UTF-8"?>
<svg width="24px" height="24px" viewBox="0 0 24 24" version="1.1" xmlns="http://www.w3.org/2000/svg" xmlns:xlink="http://www.w3.org/1999/xlink">
    <!-- Generator: Sketch 60 (88103) - https://sketch.com -->
    <title>Fill 74</title>
    <desc>Created with Sketch.</desc>
    <g id="UI_Desktop" stroke="none" stroke-width="1" fill="none" fill-rule="evenodd" fill-opacity="0.8" opacity="0.7">
        <g id="0.3-Menu" transform="translate(-1035.000000, -761.000000)" fill="#FFFFFF">
            <g id="Footer" transform="translate(0.000000, 665.000000)">
                <g id="Group-8" transform="translate(116.000000, 48.000000)">
                    <g id="RRSS" transform="translate(883.000000, 48.000000)">
                        <path d="M55.7326352,11.993475 C55.7326352,7.72611016 52.2738898,4.25431477 47.9929916,4.25431477 C43.7256268,4.25431477 40.2538314,7.72611016 40.2538314,11.993475 C40.2538314,16.2738898 43.7256268,19.7326352 47.9929916,19.7326352 C52.2738898,19.7326352 55.7326352,16.2738898 55.7326352,11.993475 Z M55.586668,3.2069278 C54.8979156,3.2069278 54.3411137,3.76372974 54.3411137,4.45248213 C54.3411137,5.14171785 54.8979156,5.69851979 55.586668,5.69851979 C56.2759037,5.69851979 56.8327057,5.14171785 56.8327057,4.45248213 C56.8327057,3.76372974 56.2759037,3.2069278 55.586668,3.2069278 Z M41.6719364,1.41810492 L54.3280636,1.41810492 C56.6736885,1.41810492 58.5818951,3.32631155 58.5818951,5.6724197 L58.5818951,18.3280636 C58.5818951,20.6736885 56.6736885,22.5818951 54.3280636,22.5818951 L41.6719364,22.5818951 C39.3258282,22.5818951 37.4181049,20.6736885 37.4181049,18.3280636 L37.4181049,5.6724197 C37.4181049,3.32631155 39.3258282,1.41810492 41.6719364,1.41810492 Z M54.3280636,0 L41.6719364,0 C38.5578089,0 36,2.5442755 36,5.6724197 L36,18.3280636 C36,21.4421911 38.5578089,24 41.6719364,24 L54.3280636,24 C57.4557245,24 60,21.4421911 60,18.3280636 L60,5.6724197 C60,2.5442755 57.4557245,0 54.3280636,0 Z M41.8705871,11.993475 C41.8705871,8.61399658 44.6139966,5.85753701 47.9929916,5.85753701 C51.3860034,5.85753701 54.1289296,8.61399658 54.1289296,11.993475 C54.1289296,15.3855201 51.3860034,18.1294129 47.9929916,18.1294129 C44.6139966,18.1294129 41.8705871,15.3855201 41.8705871,11.993475 L41.8705871,11.993475 Z" id="Fill-74"></path>
                    </g>
                </g>
            </g>
        </g>
    </g>
</svg>