<?xml version="1.0" encoding="UTF-8"?>
<svg width="12px" height="24px" viewBox="0 0 12 24" version="1.1" xmlns="http://www.w3.org/2000/svg" xmlns:xlink="http://www.w3.org/1999/xlink">
    <!-- Generator: Sketch 60 (88103) - https://sketch.com -->
    <title>Fill 40</title>
    <desc>Created with Sketch.</desc>
    <g id="UI_Desktop" stroke="none" stroke-width="1" fill="none" fill-rule="evenodd" fill-opacity="0.8" opacity="0.7">
        <g id="0.3-Menu" transform="translate(-999.000000, -761.000000)" fill="#FFFFFF">
            <g id="Footer" transform="translate(0.000000, 665.000000)">
                <g id="Group-8" transform="translate(116.000000, 48.000000)">
                    <g id="RRSS" transform="translate(883.000000, 48.000000)">
                        <path d="M7.40949479,7.18817406 L7.40949479,5.26087903 C7.40949479,4.3366513 8.0216888,4.11533058 8.46480518,4.11533058 C8.89414838,4.11533058 11.1600736,4.11533058 11.1600736,4.11533058 L11.1600736,0 L7.44891457,0 C3.32076069,0 2.39605802,3.04719688 2.39605802,5.026735 L2.39605802,7.18817406 L0,7.18817406 L0,11.9935883 L2.42217957,11.9935883 C2.42217957,17.4496666 2.42217957,24 2.42217957,24 L7.22759385,24 C7.22759385,24 7.22759385,17.3584786 7.22759385,11.9935883 L10.7824986,11.9935883 L10.9387529,10.1052382 L11.22514,7.18817406 L7.40949479,7.18817406" id="Fill-40"></path>
                    </g>
                </g>
            </g>
        </g>
    </g>
</svg>