<?xml version="1.0" encoding="UTF-8"?>
<svg width="30px" height="24px" viewBox="0 0 30 24" version="1.1" xmlns="http://www.w3.org/2000/svg" xmlns:xlink="http://www.w3.org/1999/xlink">
    <!-- Generator: Sketch 60 (88103) - https://sketch.com -->
    <title>Fill 50</title>
    <desc>Created with Sketch.</desc>
    <g id="UI_Desktop" stroke="none" stroke-width="1" fill="none" fill-rule="evenodd" fill-opacity="0.8" opacity="0.7">
        <g id="0.3-Menu" transform="translate(-1083.000000, -761.000000)" fill="#FFFFFF">
            <g id="Footer" transform="translate(0.000000, 665.000000)">
                <g id="Group-8" transform="translate(116.000000, 48.000000)">
                    <g id="RRSS" transform="translate(883.000000, 48.000000)">
                        <path d="M114.003857,2.84733693 C112.91311,3.31971713 111.726225,3.64492359 110.473468,3.80752683 C111.758271,3.04317294 112.733891,1.87112408 113.190841,0.439147421 C112.002769,1.13881608 110.668711,1.64324217 109.269373,1.91978636 C108.161416,0.732307997 106.552,0 104.762178,0 C101.377776,0 98.6111468,2.71737303 98.6111468,6.05251966 C98.6111468,6.5409228 98.6930419,6.99668661 98.7903665,7.43642748 C93.6653974,7.19192918 89.1249691,4.78373968 86.0984125,1.10617675 C85.5779635,2.01770437 85.252757,3.04317294 85.252757,4.14934969 C85.252757,6.26437862 86.3589338,8.11947975 87.9855596,9.1936106 C86.9773008,9.17699421 86.0331339,8.90045003 85.2040948,8.44468622 C85.2040948,8.47732555 85.2040948,8.49394194 85.2040948,8.52598783 C85.2040948,9.30695811 85.350675,10.0232432 85.6266258,10.7062954 C86.3755502,12.6106523 88.084071,14.0420355 90.1510311,14.449137 C89.6127788,14.5957173 89.0923298,14.6764255 88.5232184,14.6764255 C88.1327333,14.6764255 87.7422482,14.6277632 87.3671925,14.5464616 C88.1653726,16.9546511 90.4263884,18.7118342 93.112309,18.7771129 C90.9960932,20.4043321 88.3606152,21.364522 85.4806389,21.364522 C84.9756194,21.364522 84.5044261,21.3312893 84,21.282627 C86.733396,22.9917413 89.971218,24 93.4375155,24 C103.053657,24 108.992829,17.3451362 110.53756,10.4297512 C110.815291,9.1936106 110.944661,7.97289946 110.944661,6.76880471 C110.944661,6.50828347 110.944661,6.23233272 110.944661,5.98783443 C112.132733,5.12556253 113.190841,4.05143168 114.003857,2.84733693" id="Fill-50"></path>
                    </g>
                </g>
            </g>
        </g>
    </g>
</svg>