<?xml version="1.0" encoding="UTF-8"?>
<svg width="98px" height="70px" viewBox="0 0 98 70" version="1.1" xmlns="http://www.w3.org/2000/svg" xmlns:xlink="http://www.w3.org/1999/xlink">
    <title>Google</title>
    <g id="UI_Desktop" stroke="none" stroke-width="1" fill="none" fill-rule="evenodd">
        <g id="0.2-Login_nuevoyusuario_4.1" transform="translate(-450.000000, -648.000000)">
            <g id="Google" transform="translate(451.000000, 649.000000)">
                <rect id="Rectangle" stroke-opacity="0.5" stroke="#0F054B" fill="#FFFFFF" x="0" y="0" width="96" height="68" rx="4"></rect>
                <g id="google-icon" transform="translate(36.000000, 22.000000)" fill-rule="nonzero">
                    <path d="M24.4183576,12.7351872 C24.4183576,11.710845 24.3352383,10.9633442 24.1553534,10.1881689 L12.4583457,10.1881689 L12.4583457,14.8115464 L19.3242254,14.8115464 C19.1858524,15.9605198 18.4383516,17.6908509 16.7772071,18.8535662 L16.7539222,19.0083532 L20.4522998,21.8734387 L20.7085285,21.8990138 C23.0617291,19.7256981 24.4183576,16.5280402 24.4183576,12.7351872" id="Path" fill="#4285F4"></path>
                    <path d="M12.4583457,24.9166914 C15.8220513,24.9166914 18.6459112,23.8092299 20.7085285,21.8990138 L16.7772071,18.8535662 C15.7251902,19.5872296 14.3132125,20.0994008 12.4583457,20.0994008 C9.1638266,20.0994008 6.36764133,17.9261805 5.37087824,14.9223402 L5.22477539,14.9347461 L1.37914984,17.9109118 L1.3288584,18.0507163 C3.37754293,22.1204107 7.58570586,24.9166914 12.4583457,24.9166914" id="Path" fill="#34A853"></path>
                    <path d="M5.37087824,14.9223402 C5.10787402,14.1471649 4.95566367,13.3165449 4.95566367,12.4583457 C4.95566367,11.6000511 5.10787402,10.7695265 5.35704094,9.99435117 L5.35007457,9.82925781 L1.45625703,6.80528188 L1.3288584,6.86587973 C0.484496523,8.55469891 0,10.4511731 0,12.4583457 C0,14.4655183 0.484496523,16.3618971 1.3288584,18.0507163 L5.37087824,14.9223402" id="Path" fill="#FBBC05"></path>
                    <path d="M12.4583457,4.8171952 C14.7977091,4.8171952 16.3757344,5.82770016 17.2755409,6.67215746 L20.7915523,3.23916988 C18.6321693,1.23199727 15.8220513,0 12.4583457,0 C7.58570586,0 3.37754293,2.79618527 1.3288584,6.86587973 L5.35704094,9.99435117 C6.36764133,6.9905109 9.1638266,4.8171952 12.4583457,4.8171952" id="Path" fill="#EB4335"></path>
                </g>
            </g>
        </g>
    </g>
</svg>