<?xml version="1.0" encoding="UTF-8"?>
<svg width="54px" height="62px" viewBox="0 0 54 62" version="1.1" xmlns="http://www.w3.org/2000/svg" xmlns:xlink="http://www.w3.org/1999/xlink">
    <!-- Generator: Sketch 60 (88103) - https://sketch.com -->
    <title>logo</title>
    <desc>Created with Sketch.</desc>
    <g id="UI_Desktop" stroke="none" stroke-width="1" fill="none" fill-rule="evenodd" fill-opacity="0.5">
        <g id="0.2-Login_1" transform="translate(-611.000000, -278.000000)" fill="#FFFFFF">
            <g id="login" transform="translate(492.000000, 276.000000)">
                <g id="logo" transform="translate(119.000000, 0.000000)">
                    <g id="Group-3-Copy" transform="translate(29.026481, 32.107848) rotate(-270.000000) translate(-29.026481, -32.107848) translate(-2.495908, 3.451131)">
                        <path d="M31.339998,5.36656315 L55.1426124,52.971792 C55.8835802,54.4537275 55.2829071,56.2557467 53.8009717,56.9967144 C53.3844054,57.2049976 52.9250662,57.3134328 52.4593309,57.3134328 L4.85410197,57.3134328 C3.19724772,57.3134328 1.85410197,55.9702871 1.85410197,54.3134328 C1.85410197,53.8476975 1.96253724,53.3883584 2.17082039,52.971792 L25.9734348,5.36656315 C26.7144026,3.88462765 28.5164217,3.28395461 29.9983572,4.02492236 C30.5789394,4.31521346 31.0497069,4.78598094 31.339998,5.36656315 Z" id="Triangle" style="mix-blend-mode: lighten;"></path>
                        <path d="M37.3936389,4.02492236 C37.9742211,4.31521346 38.4449885,4.78598094 38.7352796,5.36656315 L62.5378941,52.971792 C63.2788618,54.4537275 62.6781888,56.2557467 61.1962533,56.9967144 C60.779687,57.2049976 60.3203478,57.3134328 59.8546125,57.3134328 L12.2493836,57.3134328 C10.5925294,57.3134328 9.24938362,55.9702871 9.24938362,54.3134328 C9.24938362,53.8476975 9.3578189,53.3883584 9.56610205,52.971792 L33.3687165,5.36656315 C34.1096842,3.88462765 35.9117034,3.28395461 37.3936389,4.02492236 Z M50.8047665,50.8425614 L48.1071257,50.8425614 C47.8309833,50.8425614 47.6071257,51.066419 47.6071257,51.3425614 L47.6071257,51.3425614 L47.6071257,54.0402022 C47.6071257,54.3163446 47.8309833,54.5402022 48.1071257,54.5402022 L48.1071257,54.5402022 L50.8047665,54.5402022 C51.0809089,54.5402022 51.3047665,54.3163446 51.3047665,54.0402022 L51.3047665,54.0402022 L51.3047665,51.3425614 C51.3047665,51.066419 51.0809089,50.8425614 50.8047665,50.8425614 L50.8047665,50.8425614 Z M45.2583052,50.8425614 L42.5606644,50.8425614 C42.284522,50.8425614 42.0606644,51.066419 42.0606644,51.3425614 L42.0606644,51.3425614 L42.0606644,54.0402022 C42.0606644,54.3163446 42.284522,54.5402022 42.5606644,54.5402022 L42.5606644,54.5402022 L45.2583052,54.5402022 C45.5344476,54.5402022 45.7583052,54.3163446 45.7583052,54.0402022 L45.7583052,54.0402022 L45.7583052,51.3425614 C45.7583052,51.066419 45.5344476,50.8425614 45.2583052,50.8425614 L45.2583052,50.8425614 Z M39.711844,50.8425614 L37.0142032,50.8425614 C36.7380608,50.8425614 36.5142032,51.066419 36.5142032,51.3425614 L36.5142032,51.3425614 L36.5142032,54.0402022 C36.5142032,54.3163446 36.7380608,54.5402022 37.0142032,54.5402022 L37.0142032,54.5402022 L39.711844,54.5402022 C39.9879864,54.5402022 40.211844,54.3163446 40.211844,54.0402022 L40.211844,54.0402022 L40.211844,51.3425614 C40.211844,51.066419 39.9879864,50.8425614 39.711844,50.8425614 L39.711844,50.8425614 Z M34.1653828,50.8425614 L31.4677419,50.8425614 C31.1915996,50.8425614 30.9677419,51.066419 30.9677419,51.3425614 L30.9677419,51.3425614 L30.9677419,54.0402022 C30.9677419,54.3163446 31.1915996,54.5402022 31.4677419,54.5402022 L31.4677419,54.5402022 L34.1653828,54.5402022 C34.4415251,54.5402022 34.6653828,54.3163446 34.6653828,54.0402022 L34.6653828,54.0402022 L34.6653828,51.3425614 C34.6653828,51.066419 34.4415251,50.8425614 34.1653828,50.8425614 L34.1653828,50.8425614 Z M28.6189215,50.8425614 L25.9212807,50.8425614 C25.6451383,50.8425614 25.4212807,51.066419 25.4212807,51.3425614 L25.4212807,51.3425614 L25.4212807,54.0402022 C25.4212807,54.3163446 25.6451383,54.5402022 25.9212807,54.5402022 L25.9212807,54.5402022 L28.6189215,54.5402022 C28.8950639,54.5402022 29.1189215,54.3163446 29.1189215,54.0402022 L29.1189215,54.0402022 L29.1189215,51.3425614 C29.1189215,51.066419 28.8950639,50.8425614 28.6189215,50.8425614 L28.6189215,50.8425614 Z M23.0724603,50.8425614 L20.3748195,50.8425614 C20.0986771,50.8425614 19.8748195,51.066419 19.8748195,51.3425614 L19.8748195,51.3425614 L19.8748195,54.0402022 C19.8748195,54.3163446 20.0986771,54.5402022 20.3748195,54.5402022 L20.3748195,54.5402022 L23.0724603,54.5402022 C23.3486027,54.5402022 23.5724603,54.3163446 23.5724603,54.0402022 L23.5724603,54.0402022 L23.5724603,51.3425614 C23.5724603,51.066419 23.3486027,50.8425614 23.0724603,50.8425614 L23.0724603,50.8425614 Z M17.525999,50.8425614 L14.8283582,50.8425614 C14.5522158,50.8425614 14.3283582,51.066419 14.3283582,51.3425614 L14.3283582,51.3425614 L14.3283582,54.0402022 C14.3283582,54.3163446 14.5522158,54.5402022 14.8283582,54.5402022 L14.8283582,54.5402022 L17.525999,54.5402022 C17.8021414,54.5402022 18.025999,54.3163446 18.025999,54.0402022 L18.025999,54.0402022 L18.025999,51.3425614 C18.025999,51.066419 17.8021414,50.8425614 17.525999,50.8425614 L17.525999,50.8425614 Z" id="Combined-Shape" style="mix-blend-mode: lighten;"></path>
                    </g>
                </g>
            </g>
        </g>
    </g>
</svg>